<svg width="78" height="24" viewBox="0 0 78 24" fill="none" xmlns="http://www.w3.org/2000/svg">
<path d="M8.3465 14.648V20.088H5.6265V14.648H0.3465V11.992H5.6265V6.68H8.3465V11.992H13.5625V14.648H8.3465ZM30.5815 23V13.208H22.0375C22.0375 14.8507 22.0375 16.4933 22.0375 18.136C22.0588 19.7573 22.0695 21.3787 22.0695 23H17.3015V1.016H22.0695C22.0695 2.488 22.0588 3.94933 22.0375 5.4C22.0375 6.85067 22.0375 8.312 22.0375 9.784H30.5815V1.016H35.3495V23H30.5815ZM38.9002 23V0.983999H54.0682V4.312H43.6682V9.912H52.4042V13.048H43.6682V19.64H54.5162V23H38.9002ZM77.0905 11.992C77.0905 13.6133 76.8772 15.1173 76.4505 16.504C76.0238 17.8693 75.3838 19.064 74.5305 20.088C73.6772 21.0907 72.6105 21.88 71.3305 22.456C70.0718 23.032 68.5998 23.32 66.9145 23.32C65.1225 23.32 63.5758 23.0533 62.2745 22.52C60.9732 21.9653 59.8958 21.1973 59.0425 20.216C58.2105 19.2133 57.5918 18.0293 57.1865 16.664C56.7812 15.2773 56.5785 13.7413 56.5785 12.056C56.5785 10.4773 56.7705 8.99467 57.1545 7.608C57.5598 6.22133 58.1785 5.00533 59.0105 3.96C59.8425 2.91467 60.9092 2.09333 62.2105 1.496C63.5118 0.898665 65.0798 0.599998 66.9145 0.599998C68.7492 0.599998 70.3065 0.909332 71.5865 1.528C72.8878 2.12533 73.9438 2.94667 74.7545 3.992C75.5652 5.016 76.1518 6.22133 76.5145 7.608C76.8985 8.97333 77.0905 10.4347 77.0905 11.992ZM72.0665 12.056C72.0665 11.0533 71.9918 10.072 71.8425 9.112C71.7145 8.13067 71.4585 7.26667 71.0745 6.52C70.7118 5.752 70.1892 5.13333 69.5065 4.664C68.8452 4.19467 67.9812 3.96 66.9145 3.96C65.8265 3.96 64.9305 4.19467 64.2265 4.664C63.5438 5.112 62.9998 5.70933 62.5945 6.456C62.1892 7.20267 61.9118 8.06667 61.7625 9.048C61.6132 10.0293 61.5385 11.0427 61.5385 12.088C61.5385 14.584 61.9332 16.5147 62.7225 17.88C63.5332 19.224 64.9305 19.896 66.9145 19.896C67.8318 19.896 68.6212 19.704 69.2825 19.32C69.9438 18.9147 70.4772 18.36 70.8825 17.656C71.2878 16.952 71.5865 16.1307 71.7785 15.192C71.9705 14.232 72.0665 13.1867 72.0665 12.056Z" fill="url(#paint0_linear_83_2374)"/>
<defs>
<linearGradient id="paint0_linear_83_2374" x1="0.565217" y1="9.95" x2="74.9875" y2="9.38257" gradientUnits="userSpaceOnUse">
<stop stop-color="#6BC1E0"/>
<stop offset="1" stop-color="#26B7B5"/>
</linearGradient>
</defs>
</svg>
